<?xml version="1.0" standalone="no"?>
<!DOCTYPE svg PUBLIC "-//W3C//DTD SVG 20010904//EN"
 "http://www.w3.org/TR/2001/REC-SVG-20010904/DTD/svg10.dtd">
<svg version="1.0" xmlns="http://www.w3.org/2000/svg"
 width="512.000000pt" height="512.000000pt" viewBox="0 0 512.000000 512.000000"
 preserveAspectRatio="xMidYMid meet">
<metadata>
Created by potrace 1.11, written by Peter Selinger 2001-2013
</metadata>
<g transform="translate(0.000000,512.000000) scale(0.100000,-0.100000)"
fill="#000000" stroke="none">
<path d="M0 2560 l0 -2560 2560 0 2560 0 0 2560 0 2560 -2560 0 -2560 0 0
-2560z m2623 1936 c18 -7 51 -29 74 -48 23 -20 58 -39 78 -42 67 -13 135 -106
135 -185 0 -57 -56 -139 -111 -161 l-29 -12 0 -176 0 -175 -22 20 c-48 44
-110 66 -194 71 -98 5 -163 -13 -230 -64 l-44 -34 0 180 0 179 -29 16 c-51 26
-101 107 -101 164 0 40 44 126 76 148 16 12 48 26 70 32 22 6 49 20 60 32 10
12 39 32 64 45 53 27 151 32 203 10z m18 -851 c116 -25 211 -76 293 -159 82
-82 124 -158 155 -283 26 -100 26 -121 2 -225 -16 -69 -66 -175 -289 -618
l-270 -535 -266 533 c-325 649 -330 665 -286 851 28 115 71 193 155 277 80 81
178 135 285 158 87 19 135 19 221 1z m-1201 -2158 c36 -13 80 -66 80 -98 0
-15 -8 -19 -40 -19 -33 0 -42 4 -49 24 -10 26 -30 36 -67 36 -36 0 -64 -18
-64 -39 0 -26 16 -36 97 -60 40 -12 85 -32 99 -44 51 -44 40 -153 -19 -191
-56 -37 -187 -27 -234 16 -20 19 -50 85 -41 92 1 2 19 6 40 9 33 5 37 3 48
-24 15 -36 37 -49 84 -49 40 0 76 28 76 60 0 23 -32 41 -118 65 -80 23 -112
57 -112 122 0 37 5 50 30 73 43 40 120 51 190 27z m3220 0 c36 -13 80 -66 80
-98 0 -15 -8 -19 -40 -19 -33 0 -42 4 -49 24 -10 26 -30 36 -67 36 -36 0 -64
-18 -64 -39 0 -26 16 -36 97 -60 40 -12 85 -32 99 -44 51 -44 40 -153 -19
-191 -56 -37 -187 -27 -234 16 -20 19 -50 85 -41 92 1 2 19 6 40 9 33 5 37 3
48 -24 15 -36 37 -49 84 -49 40 0 76 28 76 60 0 23 -32 41 -118 65 -80 23
-112 57 -112 122 0 37 5 50 30 73 43 40 120 51 190 27z m-3963 -17 c51 -33 60
-127 16 -172 -15 -15 -35 -28 -45 -28 -25 0 -23 -9 11 -45 15 -16 45 -56 65
-87 l36 -58 -50 0 -49 0 -51 75 c-53 79 -73 95 -114 95 -26 0 -26 0 -26 -85
l0 -85 -40 0 -40 0 0 206 0 206 133 -4 c90 -3 139 -8 154 -18z m433 -15 l0
-35 -110 0 -110 0 0 -45 0 -45 105 0 105 0 0 -35 0 -35 -105 0 -105 0 0 -55 0
-55 115 0 115 0 0 -35 0 -35 -155 0 -155 0 0 205 0 205 150 0 150 0 0 -35z
m780 0 l0 -35 -60 0 -60 0 0 -170 0 -170 -45 0 -45 0 0 170 0 170 -60 0 -60 0
0 35 0 35 165 0 165 0 0 -35z m347 -171 l81 -205 -45 3 c-44 3 -47 5 -62 46
l-15 43 -85 -3 -84 -3 -15 -42 c-13 -42 -15 -43 -58 -43 -41 0 -43 1 -35 23 5
12 38 96 73 187 36 91 67 173 71 183 5 12 17 17 49 17 l43 0 82 -206z m215 50
c3 -150 4 -157 27 -175 28 -23 79 -25 109 -3 21 15 22 21 22 175 l0 159 46 0
47 0 -5 -165 c-6 -177 -11 -197 -65 -232 -38 -25 -158 -25 -196 0 -56 36 -62
57 -65 234 l-4 163 40 0 41 0 3 -156z m635 136 c51 -33 60 -127 16 -172 -15
-15 -35 -28 -45 -28 -25 0 -23 -9 11 -45 15 -16 45 -56 65 -87 l36 -58 -50 0
-49 0 -51 75 c-53 79 -73 95 -114 95 -26 0 -26 0 -26 -85 l0 -85 -40 0 -40 0
0 206 0 206 133 -4 c90 -3 139 -8 154 -18z m420 -186 l81 -205 -45 3 c-44 3
-47 5 -62 46 l-15 43 -85 -3 -84 -3 -15 -42 c-13 -42 -15 -43 -58 -43 -41 0
-43 1 -35 23 5 12 38 96 73 187 36 91 67 173 71 183 5 12 17 17 49 17 l43 0
82 -206z m298 73 l80 -132 3 133 3 132 39 0 40 0 0 -205 0 -205 -44 0 -43 0
-82 133 -81 132 0 -132 0 -133 -40 0 -40 0 0 205 0 205 43 0 42 -1 80 -132z
m555 98 l0 -35 -60 0 -60 0 0 -170 0 -170 -45 0 -45 0 0 170 0 170 -60 0 -60
0 0 35 0 35 165 0 165 0 0 -35z m-3802 -621 c28 -8 52 -52 52 -94 0 -31 -30
-72 -61 -82 -12 -4 -12 -8 2 -24 16 -20 79 -130 79 -139 0 -3 -10 -5 -23 -5
-19 0 -29 11 -48 52 -37 79 -65 108 -105 108 l-34 0 0 -80 c0 -73 -2 -80 -20
-80 -19 0 -20 7 -20 175 l0 175 78 0 c42 0 87 -3 100 -6z m742 -14 c0 -18 -7
-20 -85 -20 l-85 0 0 -55 0 -55 80 0 c73 0 80 -2 80 -20 0 -18 -7 -20 -80 -20
l-80 0 0 -60 0 -60 85 0 c78 0 85 -2 85 -20 0 -19 -7 -20 -105 -20 l-105 0 0
175 0 175 105 0 c98 0 105 -1 105 -20z m537 -129 c24 -79 44 -145 46 -147 2
-2 23 64 47 146 36 122 47 150 62 150 10 0 18 -3 18 -7 0 -5 -24 -82 -53 -173
-44 -138 -56 -165 -73 -168 -16 -2 -23 5 -32 35 -7 21 -32 100 -56 176 -43
133 -44 138 -23 135 19 -3 28 -23 64 -147z m683 -26 c0 -168 -1 -175 -20 -175
-19 0 -20 7 -20 175 0 168 1 175 20 175 19 0 20 -7 20 -175z m690 155 c0 -18
-7 -20 -85 -20 l-85 0 0 -55 0 -55 80 0 c73 0 80 -2 80 -20 0 -18 -7 -20 -80
-20 l-80 0 0 -60 0 -60 85 0 c78 0 85 -2 85 -20 0 -19 -7 -20 -105 -20 l-105
0 0 175 0 175 105 0 c98 0 105 -1 105 -20z m519 -112 c13 -73 27 -137 29 -142
3 -6 20 53 37 130 29 131 33 139 56 142 24 3 26 -1 52 -120 15 -68 27 -132 27
-143 1 -44 18 13 41 134 21 113 36 147 56 127 3 -3 -11 -82 -32 -176 -35 -155
-41 -171 -59 -168 -17 3 -24 22 -48 133 -16 72 -31 137 -34 145 -4 8 -19 -41
-35 -110 -16 -69 -31 -135 -34 -148 -3 -13 -13 -22 -25 -22 -11 0 -20 2 -20 4
0 3 -16 77 -35 166 -19 89 -35 165 -35 171 0 5 8 9 18 9 14 0 21 -22 41 -132z
m905 122 c26 -10 49 -39 61 -77 10 -37 -28 -30 -42 7 -18 47 -99 54 -123 10
-18 -33 3 -54 79 -78 58 -19 74 -29 87 -54 20 -39 12 -87 -22 -119 -37 -35
-123 -35 -159 1 -31 32 -45 90 -21 90 9 0 21 -11 26 -24 19 -51 84 -71 128
-40 22 15 27 38 16 68 -3 8 -35 25 -70 36 -75 25 -104 51 -104 95 0 71 71 113
144 85z"/>
<path d="M2450 4413 c-14 -9 -38 -28 -55 -43 -16 -15 -43 -31 -60 -34 -46 -11
-75 -34 -91 -72 -20 -47 4 -109 50 -127 34 -14 433 -17 474 -3 12 4 32 25 43
47 17 34 18 46 9 75 -13 40 -49 70 -93 79 -18 4 -45 19 -62 35 -55 50 -77 60
-135 60 -35 0 -65 -6 -80 -17z"/>
<path d="M2388 4049 c-28 -11 -28 -11 -28 -106 0 -87 2 -94 18 -87 28 12 235
17 275 6 l37 -10 0 94 c0 93 0 95 -26 105 -19 7 -38 6 -62 -2 -32 -10 -120 -8
-167 5 -11 2 -32 0 -47 -5z"/>
<path d="M2423 3555 c-86 -19 -157 -59 -225 -128 -140 -142 -176 -363 -88
-543 40 -82 133 -174 218 -216 66 -33 68 -33 207 -33 139 0 141 0 207 33 290
142 356 530 130 759 -70 70 -139 109 -229 128 -83 18 -138 18 -220 0z"/>
<path d="M490 1370 l0 -50 69 0 c77 0 101 13 101 55 0 33 -27 45 -104 45 l-66
0 0 -50z"/>
<path d="M2126 1372 c-12 -19 -46 -125 -42 -129 2 -2 26 -3 54 -1 l50 3 -28
69 c-15 39 -30 64 -34 58z"/>
<path d="M2900 1370 l0 -50 69 0 c77 0 101 13 101 55 0 33 -27 45 -104 45
l-66 0 0 -50z"/>
<path d="M3396 1372 c-12 -19 -46 -125 -42 -129 2 -2 26 -3 54 -1 l50 3 -28
69 c-15 39 -30 64 -34 58z"/>
<path d="M440 745 l0 -55 59 0 c66 0 91 15 91 55 0 40 -25 55 -91 55 l-59 0 0
-55z"/>
</g>
</svg>
